<mxfile host="app.diagrams.net" modified="2024-05-25T12:31:21.784Z" agent="Mozilla/5.0 (Windows NT 10.0; Win64; x64; rv:120.0) Gecko/20100101 Firefox/120.0" etag="_mLNFc39XB-trNUUdMqR" version="24.2.5" type="device">
  <diagram name="Page-1" id="iyQKDzpvdXD-cODoexZ8">
    <mxGraphModel dx="1434" dy="746" grid="1" gridSize="10" guides="1" tooltips="1" connect="1" arrows="1" fold="1" page="1" pageScale="1" pageWidth="827" pageHeight="1169" math="0" shadow="0">
      <root>
        <mxCell id="0" />
        <mxCell id="1" parent="0" />
        <mxCell id="S5ufReLs7GRRkhtscK_7-11" style="edgeStyle=orthogonalEdgeStyle;rounded=0;orthogonalLoop=1;jettySize=auto;html=1;entryX=0;entryY=0.25;entryDx=0;entryDy=0;curved=1;startArrow=classic;startFill=1;exitX=0.813;exitY=-0.017;exitDx=0;exitDy=0;exitPerimeter=0;" edge="1" parent="1" source="S5ufReLs7GRRkhtscK_7-33" target="S5ufReLs7GRRkhtscK_7-7">
          <mxGeometry relative="1" as="geometry">
            <mxPoint x="451" y="306.5999999999999" as="sourcePoint" />
          </mxGeometry>
        </mxCell>
        <mxCell id="S5ufReLs7GRRkhtscK_7-21" value="&lt;div&gt;DP&lt;/div&gt;" style="edgeLabel;html=1;align=center;verticalAlign=middle;resizable=0;points=[];" vertex="1" connectable="0" parent="S5ufReLs7GRRkhtscK_7-11">
          <mxGeometry x="0.255" y="-5" relative="1" as="geometry">
            <mxPoint as="offset" />
          </mxGeometry>
        </mxCell>
        <mxCell id="S5ufReLs7GRRkhtscK_7-4" value="&lt;div&gt;Fuse 1.5A&lt;/div&gt;" style="pointerEvents=1;verticalLabelPosition=bottom;shadow=0;dashed=0;align=center;html=1;verticalAlign=top;shape=mxgraph.electrical.miscellaneous.fuse_4;" vertex="1" parent="1">
          <mxGeometry x="170" y="200" width="100" height="32" as="geometry" />
        </mxCell>
        <mxCell id="S5ufReLs7GRRkhtscK_7-7" value="USB-out 1" style="rounded=1;whiteSpace=wrap;html=1;" vertex="1" parent="1">
          <mxGeometry x="620" y="270" width="120" height="60" as="geometry" />
        </mxCell>
        <mxCell id="S5ufReLs7GRRkhtscK_7-28" style="edgeStyle=orthogonalEdgeStyle;rounded=0;orthogonalLoop=1;jettySize=auto;html=1;exitX=0.5;exitY=0;exitDx=0;exitDy=0;entryX=1;entryY=0.8;entryDx=0;entryDy=0;curved=1;startArrow=classic;startFill=1;endArrow=none;endFill=0;" edge="1" parent="1" source="S5ufReLs7GRRkhtscK_7-8" target="S5ufReLs7GRRkhtscK_7-25">
          <mxGeometry relative="1" as="geometry">
            <Array as="points">
              <mxPoint x="680" y="370" />
              <mxPoint x="780" y="370" />
              <mxPoint x="780" y="160" />
              <mxPoint x="414" y="160" />
            </Array>
          </mxGeometry>
        </mxCell>
        <mxCell id="S5ufReLs7GRRkhtscK_7-29" value="5V" style="edgeLabel;html=1;align=center;verticalAlign=middle;resizable=0;points=[];fontSize=17;" vertex="1" connectable="0" parent="S5ufReLs7GRRkhtscK_7-28">
          <mxGeometry x="0.1288" y="13" relative="1" as="geometry">
            <mxPoint as="offset" />
          </mxGeometry>
        </mxCell>
        <mxCell id="S5ufReLs7GRRkhtscK_7-8" value="&lt;div&gt;USB-out 2&lt;/div&gt;" style="rounded=1;whiteSpace=wrap;html=1;" vertex="1" parent="1">
          <mxGeometry x="620" y="430" width="120" height="60" as="geometry" />
        </mxCell>
        <mxCell id="S5ufReLs7GRRkhtscK_7-16" style="edgeStyle=orthogonalEdgeStyle;rounded=0;orthogonalLoop=1;jettySize=auto;html=1;exitX=1;exitY=0;exitDx=0;exitDy=0;entryX=0;entryY=0.75;entryDx=0;entryDy=0;startArrow=classic;startFill=1;curved=1;" edge="1" parent="1" source="S5ufReLs7GRRkhtscK_7-33" target="S5ufReLs7GRRkhtscK_7-7">
          <mxGeometry relative="1" as="geometry">
            <mxPoint x="451" y="326.8800000000001" as="sourcePoint" />
          </mxGeometry>
        </mxCell>
        <mxCell id="S5ufReLs7GRRkhtscK_7-22" value="&lt;div&gt;DN&lt;/div&gt;" style="edgeLabel;html=1;align=center;verticalAlign=middle;resizable=0;points=[];" vertex="1" connectable="0" parent="S5ufReLs7GRRkhtscK_7-16">
          <mxGeometry x="0.2814" y="-7" relative="1" as="geometry">
            <mxPoint as="offset" />
          </mxGeometry>
        </mxCell>
        <mxCell id="S5ufReLs7GRRkhtscK_7-19" style="edgeStyle=orthogonalEdgeStyle;rounded=0;orthogonalLoop=1;jettySize=auto;html=1;exitX=1;exitY=0.5;exitDx=0;exitDy=0;entryX=0;entryY=0.25;entryDx=0;entryDy=0;startArrow=classic;startFill=1;curved=1;" edge="1" parent="1" source="S5ufReLs7GRRkhtscK_7-33" target="S5ufReLs7GRRkhtscK_7-8">
          <mxGeometry relative="1" as="geometry">
            <mxPoint x="445" y="456.0999999999999" as="sourcePoint" />
          </mxGeometry>
        </mxCell>
        <mxCell id="S5ufReLs7GRRkhtscK_7-23" value="DP" style="edgeLabel;html=1;align=center;verticalAlign=middle;resizable=0;points=[];" vertex="1" connectable="0" parent="S5ufReLs7GRRkhtscK_7-19">
          <mxGeometry x="0.1832" y="-8" relative="1" as="geometry">
            <mxPoint as="offset" />
          </mxGeometry>
        </mxCell>
        <mxCell id="S5ufReLs7GRRkhtscK_7-20" style="edgeStyle=orthogonalEdgeStyle;rounded=0;orthogonalLoop=1;jettySize=auto;html=1;exitX=1;exitY=0.75;exitDx=0;exitDy=0;entryX=0;entryY=0.75;entryDx=0;entryDy=0;startArrow=classic;startFill=1;curved=1;" edge="1" parent="1" source="S5ufReLs7GRRkhtscK_7-33" target="S5ufReLs7GRRkhtscK_7-8">
          <mxGeometry relative="1" as="geometry">
            <mxPoint x="445" y="476.3800000000001" as="sourcePoint" />
          </mxGeometry>
        </mxCell>
        <mxCell id="S5ufReLs7GRRkhtscK_7-24" value="DN" style="edgeLabel;html=1;align=center;verticalAlign=middle;resizable=0;points=[];" vertex="1" connectable="0" parent="S5ufReLs7GRRkhtscK_7-20">
          <mxGeometry x="-0.229" y="-1" relative="1" as="geometry">
            <mxPoint as="offset" />
          </mxGeometry>
        </mxCell>
        <mxCell id="S5ufReLs7GRRkhtscK_7-26" style="edgeStyle=orthogonalEdgeStyle;rounded=0;orthogonalLoop=1;jettySize=auto;html=1;exitX=1;exitY=0.8;exitDx=0;exitDy=0;curved=1;" edge="1" parent="1" source="S5ufReLs7GRRkhtscK_7-25" target="S5ufReLs7GRRkhtscK_7-7">
          <mxGeometry relative="1" as="geometry" />
        </mxCell>
        <mxCell id="S5ufReLs7GRRkhtscK_7-27" value="5V" style="edgeLabel;html=1;align=center;verticalAlign=middle;resizable=0;points=[];fontSize=17;" vertex="1" connectable="0" parent="S5ufReLs7GRRkhtscK_7-26">
          <mxGeometry x="-0.1125" relative="1" as="geometry">
            <mxPoint as="offset" />
          </mxGeometry>
        </mxCell>
        <mxCell id="S5ufReLs7GRRkhtscK_7-25" value="TPS2065" style="html=1;shape=mxgraph.electrical.electro-mechanical.singleSwitch;aspect=fixed;elSwitchState=off;spacingBottom=-46;" vertex="1" parent="1">
          <mxGeometry x="339" y="200" width="75" height="20" as="geometry" />
        </mxCell>
        <mxCell id="S5ufReLs7GRRkhtscK_7-30" style="edgeStyle=orthogonalEdgeStyle;rounded=0;orthogonalLoop=1;jettySize=auto;html=1;exitX=1;exitY=0.5;exitDx=0;exitDy=0;exitPerimeter=0;entryX=0.227;entryY=0.8;entryDx=0;entryDy=0;entryPerimeter=0;" edge="1" parent="1" source="S5ufReLs7GRRkhtscK_7-4" target="S5ufReLs7GRRkhtscK_7-25">
          <mxGeometry relative="1" as="geometry" />
        </mxCell>
        <mxCell id="S5ufReLs7GRRkhtscK_7-32" style="edgeStyle=orthogonalEdgeStyle;rounded=0;orthogonalLoop=1;jettySize=auto;html=1;exitX=0.5;exitY=0;exitDx=0;exitDy=0;curved=1;" edge="1" parent="1" source="S5ufReLs7GRRkhtscK_7-31">
          <mxGeometry relative="1" as="geometry">
            <mxPoint x="360" y="240" as="targetPoint" />
          </mxGeometry>
        </mxCell>
        <mxCell id="S5ufReLs7GRRkhtscK_7-38" value="EN" style="edgeLabel;html=1;align=center;verticalAlign=middle;resizable=0;points=[];" vertex="1" connectable="0" parent="S5ufReLs7GRRkhtscK_7-32">
          <mxGeometry x="-0.1429" y="1" relative="1" as="geometry">
            <mxPoint y="1" as="offset" />
          </mxGeometry>
        </mxCell>
        <mxCell id="S5ufReLs7GRRkhtscK_7-39" style="edgeStyle=orthogonalEdgeStyle;rounded=0;orthogonalLoop=1;jettySize=auto;html=1;exitX=0.75;exitY=0;exitDx=0;exitDy=0;curved=1;startArrow=classic;startFill=1;endArrow=none;endFill=0;" edge="1" parent="1" source="S5ufReLs7GRRkhtscK_7-31">
          <mxGeometry relative="1" as="geometry">
            <mxPoint x="390" y="240" as="targetPoint" />
          </mxGeometry>
        </mxCell>
        <mxCell id="S5ufReLs7GRRkhtscK_7-40" value="Fault" style="edgeLabel;html=1;align=center;verticalAlign=middle;resizable=0;points=[];" vertex="1" connectable="0" parent="S5ufReLs7GRRkhtscK_7-39">
          <mxGeometry x="0.4344" y="3" relative="1" as="geometry">
            <mxPoint as="offset" />
          </mxGeometry>
        </mxCell>
        <mxCell id="S5ufReLs7GRRkhtscK_7-31" value="ESP32-S3" style="rounded=1;whiteSpace=wrap;html=1;" vertex="1" parent="1">
          <mxGeometry x="280" y="290" width="120" height="60" as="geometry" />
        </mxCell>
        <mxCell id="S5ufReLs7GRRkhtscK_7-35" style="edgeStyle=orthogonalEdgeStyle;rounded=0;orthogonalLoop=1;jettySize=auto;html=1;exitX=0.25;exitY=0;exitDx=0;exitDy=0;entryX=0.75;entryY=1;entryDx=0;entryDy=0;curved=1;startArrow=classic;startFill=1;" edge="1" parent="1" source="S5ufReLs7GRRkhtscK_7-33" target="S5ufReLs7GRRkhtscK_7-31">
          <mxGeometry relative="1" as="geometry" />
        </mxCell>
        <mxCell id="S5ufReLs7GRRkhtscK_7-37" value="DN" style="edgeLabel;html=1;align=center;verticalAlign=middle;resizable=0;points=[];" vertex="1" connectable="0" parent="S5ufReLs7GRRkhtscK_7-35">
          <mxGeometry x="-0.175" relative="1" as="geometry">
            <mxPoint as="offset" />
          </mxGeometry>
        </mxCell>
        <mxCell id="S5ufReLs7GRRkhtscK_7-49" style="edgeStyle=orthogonalEdgeStyle;rounded=0;orthogonalLoop=1;jettySize=auto;html=1;exitX=0;exitY=0.5;exitDx=0;exitDy=0;entryX=0.5;entryY=1;entryDx=0;entryDy=0;startArrow=classic;startFill=1;endArrow=classic;endFill=1;curved=1;" edge="1" parent="1" source="S5ufReLs7GRRkhtscK_7-33" target="S5ufReLs7GRRkhtscK_7-42">
          <mxGeometry relative="1" as="geometry" />
        </mxCell>
        <mxCell id="S5ufReLs7GRRkhtscK_7-50" value="DP" style="edgeLabel;html=1;align=center;verticalAlign=middle;resizable=0;points=[];" vertex="1" connectable="0" parent="S5ufReLs7GRRkhtscK_7-49">
          <mxGeometry x="-0.447" y="-21" relative="1" as="geometry">
            <mxPoint as="offset" />
          </mxGeometry>
        </mxCell>
        <mxCell id="S5ufReLs7GRRkhtscK_7-33" value="&lt;div&gt;CH334R&lt;/div&gt;&lt;div&gt;HUB Controller&lt;/div&gt;" style="rounded=1;whiteSpace=wrap;html=1;" vertex="1" parent="1">
          <mxGeometry x="330" y="420" width="120" height="60" as="geometry" />
        </mxCell>
        <mxCell id="S5ufReLs7GRRkhtscK_7-34" style="edgeStyle=orthogonalEdgeStyle;rounded=0;orthogonalLoop=1;jettySize=auto;html=1;exitX=0.5;exitY=0;exitDx=0;exitDy=0;entryX=1;entryY=1;entryDx=0;entryDy=0;curved=1;startArrow=classic;startFill=1;" edge="1" parent="1" source="S5ufReLs7GRRkhtscK_7-33" target="S5ufReLs7GRRkhtscK_7-31">
          <mxGeometry relative="1" as="geometry">
            <mxPoint x="500" y="600" as="targetPoint" />
          </mxGeometry>
        </mxCell>
        <mxCell id="S5ufReLs7GRRkhtscK_7-36" value="DP" style="edgeLabel;html=1;align=center;verticalAlign=middle;resizable=0;points=[];" vertex="1" connectable="0" parent="S5ufReLs7GRRkhtscK_7-34">
          <mxGeometry x="-0.075" y="-1" relative="1" as="geometry">
            <mxPoint as="offset" />
          </mxGeometry>
        </mxCell>
        <mxCell id="S5ufReLs7GRRkhtscK_7-45" style="edgeStyle=orthogonalEdgeStyle;rounded=0;orthogonalLoop=1;jettySize=auto;html=1;exitX=0.75;exitY=1;exitDx=0;exitDy=0;entryX=0.25;entryY=1;entryDx=0;entryDy=0;endArrow=none;endFill=0;curved=1;" edge="1" parent="1" source="S5ufReLs7GRRkhtscK_7-41" target="S5ufReLs7GRRkhtscK_7-31">
          <mxGeometry relative="1" as="geometry" />
        </mxCell>
        <mxCell id="S5ufReLs7GRRkhtscK_7-41" value="&lt;div&gt;3.3V LDO&lt;/div&gt;" style="rounded=1;whiteSpace=wrap;html=1;" vertex="1" parent="1">
          <mxGeometry x="150" y="290" width="120" height="60" as="geometry" />
        </mxCell>
        <mxCell id="S5ufReLs7GRRkhtscK_7-48" style="edgeStyle=orthogonalEdgeStyle;rounded=0;orthogonalLoop=1;jettySize=auto;html=1;exitX=0.25;exitY=1;exitDx=0;exitDy=0;entryX=0;entryY=0.75;entryDx=0;entryDy=0;startArrow=classic;startFill=1;endArrow=classic;endFill=1;curved=1;" edge="1" parent="1" source="S5ufReLs7GRRkhtscK_7-42" target="S5ufReLs7GRRkhtscK_7-33">
          <mxGeometry relative="1" as="geometry" />
        </mxCell>
        <mxCell id="S5ufReLs7GRRkhtscK_7-51" value="DN" style="edgeLabel;html=1;align=center;verticalAlign=middle;resizable=0;points=[];" vertex="1" connectable="0" parent="S5ufReLs7GRRkhtscK_7-48">
          <mxGeometry x="0.4906" y="15" relative="1" as="geometry">
            <mxPoint as="offset" />
          </mxGeometry>
        </mxCell>
        <mxCell id="S5ufReLs7GRRkhtscK_7-42" value="USB-C Input" style="rounded=1;whiteSpace=wrap;html=1;" vertex="1" parent="1">
          <mxGeometry x="40" y="186" width="120" height="60" as="geometry" />
        </mxCell>
        <mxCell id="S5ufReLs7GRRkhtscK_7-44" style="edgeStyle=orthogonalEdgeStyle;rounded=0;orthogonalLoop=1;jettySize=auto;html=1;exitX=0.75;exitY=0;exitDx=0;exitDy=0;entryX=1;entryY=0.5;entryDx=0;entryDy=0;entryPerimeter=0;endArrow=none;endFill=0;curved=1;" edge="1" parent="1" source="S5ufReLs7GRRkhtscK_7-41" target="S5ufReLs7GRRkhtscK_7-4">
          <mxGeometry relative="1" as="geometry" />
        </mxCell>
      </root>
    </mxGraphModel>
  </diagram>
</mxfile>
